<svg xmlns="http://www.w3.org/2000/svg" width="98" height="41" fill="none" viewBox="0 0 98 41"><g clip-path="url(#clip0_48_273)"><path fill="#fff" d="M37.5664 11.7587L40.8801 3.18861H38.7662L37.1665 7.64503C36.9236 8.33064 36.6665 9.04481 36.438 9.73041H36.338C36.1238 9.04481 35.8667 8.33064 35.6238 7.64503L34.0527 3.18861H31.853L35.1668 11.7587H37.5664Z"/><path fill="#fff" d="M43.1804 10.3303C42.4377 10.3303 42.1806 10.0018 42.1806 9.58758C42.1806 9.21621 42.5234 8.95911 43.0947 8.95911H44.5516V9.15908C44.5516 9.84468 44.0089 10.3303 43.1804 10.3303ZM44.5516 11.7587H46.4942V7.55933C46.4942 5.83104 45.6372 4.83121 43.5804 4.83121C41.4807 4.83121 40.6523 5.84533 40.4809 7.25938L42.3091 7.51648C42.4377 6.7309 42.8519 6.44523 43.4947 6.44523C44.2374 6.44523 44.5516 6.84516 44.5516 7.57362V7.85929H42.7948C41.0093 7.85929 40.2809 8.70201 40.2809 9.93038C40.2809 11.2587 41.1665 11.9015 42.3377 11.9015C43.4804 11.9015 44.2231 11.2587 44.5231 10.1018H44.5516V11.7587Z"/><path fill="#fff" d="M49.2028 3.00293H47.2459V11.7587H49.2028V3.00293Z"/><path fill="#fff" d="M54.2649 11.7587H56.2074V4.98832H54.2649V8.95911C54.2649 9.7447 53.8078 10.2018 53.0222 10.2018C52.2081 10.2018 51.8939 9.65899 51.8939 8.95911V4.98832H49.937V9.51616C49.937 10.9874 50.5655 11.9586 52.0367 11.9586C53.1222 11.9586 53.9221 11.4159 54.2363 9.87325H54.2649V11.7587Z"/><path fill="#fff" d="M60.1812 6.41666C61.0525 6.41666 61.4953 6.87373 61.5524 7.77359H58.6958C58.8243 6.8166 59.3242 6.41666 60.1812 6.41666ZM60.2098 11.9443C62.0666 11.9443 62.9522 11.0016 63.2807 9.77326L61.5953 9.30191C61.4382 9.8304 61.1382 10.2732 60.2384 10.2732C59.3242 10.2732 58.81 9.84468 58.6815 8.87341H63.3093C63.3379 8.50204 63.3379 8.2735 63.3379 7.97355C63.3379 6.13099 62.3237 4.80264 60.2384 4.80264C58.0387 4.80264 56.7389 6.17384 56.7389 8.51632C56.7389 10.7731 58.1673 11.9443 60.2098 11.9443Z"/><path fill="#fff" d="M32.9326 18.4183H35.4036V25.0458H37.4605V18.4183H39.9172V16.4757H32.9326V18.4183Z"/><path fill="#fff" d="M42.9735 19.7038C43.8448 19.7038 44.2876 20.1608 44.3447 21.0607H41.488C41.6166 20.1037 42.1165 19.7038 42.9735 19.7038ZM43.0021 25.2314C44.8589 25.2314 45.7445 24.2887 46.073 23.0604L44.3876 22.589C44.2305 23.1175 43.9305 23.5603 43.0306 23.5603C42.1165 23.5603 41.6023 23.1318 41.4738 22.1605H46.1016C46.1301 21.7891 46.1301 21.5606 46.1301 21.2607C46.1301 19.4181 45.116 18.0897 43.0306 18.0897C40.831 18.0897 39.5312 19.461 39.5312 21.8034C39.5312 24.0602 40.9596 25.2314 43.0021 25.2314Z"/><path fill="#fff" d="M51.3074 21.2178L53.1928 20.9464C52.9215 19.1324 52.0359 18.0897 49.9077 18.0897C47.7794 18.0897 46.3939 19.4181 46.3939 21.7034C46.3939 24.0459 47.808 25.2457 49.9505 25.2457C51.9787 25.2457 52.9643 24.1173 53.1928 22.3462L51.3217 21.9891C51.1503 22.8461 50.8075 23.4603 49.9077 23.4603C48.9935 23.4603 48.3936 22.8604 48.3936 21.6463C48.3936 20.4037 49.0221 19.8609 49.8934 19.8609C50.7647 19.8609 51.1503 20.4322 51.3074 21.2178Z"/><path fill="#fff" d="M55.6798 21.075C55.6798 20.3037 56.1369 19.8466 56.9225 19.8466C57.7366 19.8466 58.0509 20.3751 58.0509 21.075V25.0458H59.9934V20.5179C59.9934 19.061 59.3792 18.0897 57.908 18.0897C56.8225 18.0897 56.0083 18.6182 55.6941 20.1751H55.6798V16.29H53.723V25.0458H55.6798V21.075Z"/><path fill="#fff" d="M62.696 21.075C62.696 20.3037 63.1531 19.8466 63.9386 19.8466C64.7528 19.8466 65.067 20.3751 65.067 21.075V25.0458H67.0096V20.5179C67.0096 19.061 66.3954 18.0897 64.9242 18.0897C63.8387 18.0897 63.0245 18.6182 62.7103 20.1751H62.696V18.2754H60.7392V25.0458H62.696V21.075Z"/><path fill="#fff" d="M71.0119 25.2457C73.183 25.2457 74.5114 23.8888 74.5114 21.6606C74.5114 19.4038 73.1402 18.0897 71.0119 18.0897C68.8694 18.0897 67.4982 19.4038 67.4982 21.6606C67.4982 23.8888 68.8266 25.2457 71.0119 25.2457ZM71.0119 19.8609C71.9975 19.8609 72.5688 20.5608 72.5688 21.6463C72.5688 22.7461 72.0118 23.4603 70.9977 23.4603C69.9978 23.4603 69.455 22.7461 69.455 21.6463C69.455 20.5608 70.0121 19.8609 71.0119 19.8609Z"/><path fill="#fff" d="M76.9794 16.29H75.0226V25.0458H76.9794V16.29Z"/><path fill="#fff" d="M80.9956 25.2457C83.1667 25.2457 84.495 23.8888 84.495 21.6606C84.495 19.4038 83.1238 18.0897 80.9956 18.0897C78.8531 18.0897 77.4819 19.4038 77.4819 21.6606C77.4819 23.8888 78.8102 25.2457 80.9956 25.2457ZM80.9956 19.8609C81.9811 19.8609 82.5525 20.5608 82.5525 21.6463C82.5525 22.7461 81.9954 23.4603 80.9813 23.4603C79.9815 23.4603 79.4387 22.7461 79.4387 21.6463C79.4387 20.5608 79.9957 19.8609 80.9956 19.8609Z"/><path fill="#fff" d="M87.7812 19.8466C88.6382 19.8466 89.0096 20.1751 89.0096 20.7179C89.0096 21.2321 88.6953 21.5749 87.7955 21.5749C86.8956 21.5749 86.5957 21.2178 86.5957 20.7179C86.5957 20.2037 86.8956 19.8466 87.7812 19.8466ZM87.8669 25.8028C86.2672 25.8028 85.9529 25.6457 85.9529 25.2172C85.9529 24.9458 86.2386 24.703 86.7956 24.703H89.2952C89.7523 24.703 89.9094 24.9029 89.9094 25.16C89.9094 25.6028 89.5666 25.8028 87.8669 25.8028ZM87.9097 27.1883C90.495 27.2026 91.4092 26.4312 91.4092 25.16C91.4092 24.0459 90.795 23.346 89.2381 23.346C88.5239 23.346 87.7098 23.4175 86.9099 23.4175C86.5528 23.4175 86.41 23.3318 86.41 23.1032C86.41 23.0175 86.4528 22.9318 86.51 22.8176L86.61 22.6604C86.9528 22.7461 87.3384 22.789 87.7812 22.789C89.6095 22.789 90.6522 22.2319 90.6522 21.1178C90.6522 20.3322 90.0951 20.0323 89.3809 19.8895L89.3952 19.8752C89.8094 19.8895 90.138 19.9037 90.4379 19.9037H91.2092V18.2754H87.824C85.9672 18.2754 84.8531 19.1182 84.8531 20.5751C84.8531 21.632 85.4387 22.3319 86.4814 22.6319L85.9386 22.8033C85.2673 22.989 84.9674 23.3889 84.9674 23.7745C84.9674 24.2602 85.3244 24.6173 86.1815 24.6887C85.0959 24.8172 84.496 25.26 84.496 25.8456C84.496 26.6741 85.2245 27.2026 87.9097 27.1883Z"/><path fill="#fff" d="M92.3898 27.3454C94.0896 27.3454 94.9751 26.6598 95.6179 25.0029L98.246 18.2754H96.1464L95.4608 20.8036C95.2894 21.4321 95.0894 22.1177 94.8751 22.8318H94.7609C94.5466 22.1177 94.3181 21.3892 94.1324 20.7607L93.3325 18.2754H91.2043L93.761 24.9315C93.4611 25.6171 93.1183 25.7171 92.4184 25.7171C92.1327 25.7171 91.8471 25.6742 91.5471 25.6171L91.3186 27.2597C91.6614 27.3025 91.9328 27.3454 92.3898 27.3454Z"/><path fill="#fff" d="M39.6487 34.5473V33.5617H35.6637V30.7479H40.1486V29.7623H34.6353V38.3324H35.6637V34.5473H39.6487Z"/><path fill="#fff" d="M44.0337 38.4895C46.1191 38.4895 47.376 37.1469 47.376 34.9901C47.376 32.819 46.0048 31.5335 44.0337 31.5335C42.0626 31.5335 40.6914 32.819 40.6914 34.9901C40.6914 37.1469 41.9341 38.4895 44.0337 38.4895ZM44.0337 32.4476C45.4906 32.4476 46.3905 33.4189 46.3905 34.9758C46.3905 36.5327 45.5335 37.5754 44.0194 37.5754C42.5054 37.5754 41.677 36.5327 41.677 34.9758C41.677 33.4189 42.5768 32.4476 44.0337 32.4476Z"/><path fill="#fff" d="M52.9894 38.3324H53.9607V31.6906H52.9894V35.6471C52.9894 36.8755 52.2038 37.5897 50.9469 37.5897C49.59 37.5897 49.1758 36.6327 49.1758 35.6471V31.6906H48.1902V35.8756C48.1902 37.2897 48.7758 38.4895 50.6041 38.4895C51.7896 38.4895 52.6895 37.8468 52.9751 36.5612H52.9894V38.3324Z"/><path fill="#fff" d="M56.2773 34.3759C56.2773 33.1475 57.0486 32.4333 58.3198 32.4333C59.6767 32.4333 60.0909 33.3903 60.0909 34.3759V38.3324H61.0765V34.1616C61.0765 32.7333 60.4909 31.5335 58.6626 31.5335C57.4628 31.5335 56.5772 32.1762 56.2916 33.476H56.2773V31.6906H55.2917V38.3324H56.2773V34.3759Z"/><path fill="#fff" d="M65.05 37.5897C63.5788 37.5897 62.8789 36.6612 62.8789 35.0329C62.8789 33.376 63.6216 32.4191 65.05 32.4191C66.4497 32.4191 67.3353 33.4332 67.3353 34.9758V35.0615C67.3353 36.6898 66.4497 37.5897 65.05 37.5897ZM67.3353 38.3324H68.3209V29.5767H67.3353V33.7331H67.321C67.0639 32.4191 66.2783 31.5192 64.7072 31.5335C62.9503 31.5192 61.8933 32.8618 61.8933 35.0186C61.8933 37.1469 62.8789 38.4895 64.75 38.4895C66.2355 38.4895 67.0496 37.6182 67.321 36.3184H67.3353V38.3324Z"/><path fill="#fff" d="M71.7568 37.6325C70.7141 37.6325 70.3427 37.0755 70.3427 36.5327C70.3427 35.8328 70.857 35.4614 71.7854 35.4614H73.985V35.8899C73.985 36.8898 73.1423 37.6325 71.7568 37.6325ZM73.985 38.3324H74.9563V34.1902C74.9563 32.4905 74.1707 31.5478 72.3853 31.5478C70.757 31.5478 69.8143 32.3762 69.5857 33.976L70.5284 34.1331C70.7284 32.9047 71.2997 32.4048 72.3567 32.4048C73.5565 32.4048 73.985 33.0475 73.985 34.2188V34.6616H71.6854C70.1285 34.6616 69.3715 35.5186 69.3715 36.6184C69.3715 37.861 70.1999 38.4752 71.5426 38.4752C72.7138 38.4752 73.6565 37.8753 73.9707 36.6184H73.985V38.3324Z"/><path fill="#fff" d="M76.5989 36.3898C76.5989 37.6182 77.1988 38.4895 78.5271 38.4895C79.0842 38.4895 79.4556 38.4181 79.8983 38.2753L79.7555 37.3754C79.3699 37.4897 79.0699 37.5468 78.6985 37.5468C77.8987 37.5468 77.5844 37.1326 77.5844 36.3041V32.5619H79.8269V31.6906H77.5844V29.7909H76.5989V31.6906H75.5276V32.5619H76.5989V36.3898Z"/><path fill="#fff" d="M81.8895 30.5479V29.5767H80.6897V30.5479H81.8895ZM81.7896 38.3324V31.6906H80.804V38.3324H81.7896Z"/><path fill="#fff" d="M86.1691 38.4895C88.2545 38.4895 89.5114 37.1469 89.5114 34.9901C89.5114 32.819 88.1402 31.5335 86.1691 31.5335C84.198 31.5335 82.8268 32.819 82.8268 34.9901C82.8268 37.1469 84.0694 38.4895 86.1691 38.4895ZM86.1691 32.4476C87.626 32.4476 88.5258 33.4189 88.5258 34.9758C88.5258 36.5327 87.6688 37.5754 86.1548 37.5754C84.6408 37.5754 83.8123 36.5327 83.8123 34.9758C83.8123 33.4189 84.7122 32.4476 86.1691 32.4476Z"/><path fill="#fff" d="M91.3825 34.3759C91.3825 33.1475 92.1538 32.4333 93.4251 32.4333C94.782 32.4333 95.1962 33.3903 95.1962 34.3759V38.3324H96.1817V34.1616C96.1817 32.7333 95.5961 31.5335 93.7679 31.5335C92.568 31.5335 91.6825 32.1762 91.3968 33.476H91.3825V31.6906H90.397V38.3324H91.3825V34.3759Z"/></g><path fill="#fff" stroke="#ECECEC" stroke-width=".25" d="M13.3375 30.2475C13.5106 30.074 13.6821 29.899 13.8536 29.724L14.0252 29.549L13.3375 30.2475ZM13.3375 30.2475C13.2011 30.3861 13.0386 30.4964 12.8594 30.5719M13.3375 30.2475L12.8594 30.5719M12.8594 30.5719C12.6801 30.6474 12.4877 30.6867 12.2932 30.6874M12.8594 30.5719L12.2932 30.6874M12.2932 30.6874C12.0987 30.6882 11.9059 30.6505 11.7261 30.5764M12.2932 30.6874L11.7261 30.5764M11.7261 30.5764C11.5463 30.5023 11.3829 30.3933 11.2454 30.2558L11.7261 30.5764ZM17.8069 25.5149L17.8069 25.515C16.516 26.8299 15.2257 28.1454 13.9359 29.4615C13.8785 29.5199 13.8213 29.5783 13.7642 29.6367C13.5927 29.8116 13.4217 29.9861 13.249 30.1592L13.2484 30.1598C13.1236 30.2867 12.9749 30.3876 12.8108 30.4567C12.6468 30.5258 12.4707 30.5617 12.2927 30.5625C12.1147 30.5632 11.9383 30.5286 11.7737 30.4608C11.6091 30.393 11.4596 30.2933 11.3338 30.1674L11.3329 30.1665C10.0718 28.9297 8.81039 27.6935 7.54881 26.4577L7.5488 26.4577C7.22868 26.1442 7.07473 25.7852 7.07248 25.4321C7.07022 25.0788 7.21969 24.7172 7.53325 24.3986L7.44415 24.3109L7.53325 24.3986C9.48794 22.4121 11.4408 20.4236 13.3918 18.4333C14.6683 17.1327 15.9446 15.8321 17.2206 14.5313C17.365 14.3841 17.5087 14.2368 17.6521 14.0897C17.9146 13.8205 18.1765 13.5518 18.4418 13.2855C19.097 12.6288 20.0839 12.6244 20.7495 13.2758L20.8369 13.1865L20.7495 13.2758C21.9061 14.4074 23.0619 15.5394 24.2168 16.6716L24.2179 16.6727C24.4836 16.9268 24.6521 17.2657 24.6945 17.6308L24.6941 17.6308L24.6958 17.6394C24.7021 17.673 24.7103 17.7062 24.7204 17.7388L24.7215 17.951C24.72 17.9578 24.7186 17.9645 24.7172 17.9712C24.6537 18.2695 24.5976 18.5331 24.4214 18.7422C24.2099 18.9914 23.983 19.2261 23.7524 19.4637C21.7711 21.4813 19.7893 23.4984 17.8069 25.5149ZM14.5904 21.8829C14.7622 22.0548 14.9345 22.2272 15.1076 22.4004C15.4165 22.7095 15.7277 23.0209 16.0424 23.3355L16.1316 23.4247L16.22 23.3347L21.523 17.9324L21.6106 17.8431L21.5212 17.7555L19.7037 15.9765L19.6145 15.8891L19.5271 15.9783L10.4093 25.2724L10.3246 25.3587L10.4081 25.4462L12.1633 27.2866L12.2525 27.3802L12.343 27.2879L14.1921 25.4021L14.2792 25.3132L14.1907 25.2257L12.7117 23.762L14.5904 21.8829ZM10.0264 20.7605L5.1958 15.8739L5.10743 15.7845L5.01853 15.8734L3.25169 17.6396L3.16325 17.728L3.2517 17.8164L8.00627 22.5686L6.09711 24.4774C4.31276 22.6902 2.52708 20.9045 0.740071 19.1202C-0.0800975 18.3 -0.0799406 17.1415 0.740043 16.3233L0.740122 16.3232L3.68585 13.3786C3.68586 13.3786 3.68587 13.3786 3.68588 13.3785C4.50397 12.5614 5.68319 12.5725 6.49484 13.4001C7.08807 14.0049 7.68412 14.6074 8.27999 15.2096C8.59259 15.5256 8.90513 15.8414 9.21719 16.1576C10.0584 17.0099 10.8928 17.8559 11.7299 18.7046L11.8758 18.8526L10.0264 20.7605Z"/><defs><clipPath id="clip0_48_273"><rect width="65.675" height="41" fill="#fff" transform="translate(31.853)"/></clipPath></defs></svg>